<?xml version="1.0" encoding="utf-8" ?>
<svg xmlns="http://www.w3.org/2000/svg" xmlns:xlink="http://www.w3.org/1999/xlink" width="16" height="16" viewBox="0 0 16 16">
	<path d="M8 0C3.58172 0 0 3.58172 0 8L0 8.012C0 12.4303 3.56972 16 7.988 16L8 16C12.4183 16 16 12.4303 16 8.012L16 8C16 3.58172 12.4303 0 8.012 0L8 0Z" fill-rule="nonzero" transform="matrix(1 0 0 1 0 0)" fill="rgb(255, 255, 255)"/>
	<path d="M-0 8C0 3.58172 3.58172 -0 8 -0C12.4183 0 16 3.58172 16 8C16 12.4183 12.4183 16 8 16C3.58172 16 -0 12.4183 -0 8L0 8ZM8 1C4.13401 1 1 4.13401 1 8C1 11.866 4.13401 15 8 15C11.866 15 15 11.866 15 8C15 4.13401 11.866 1 8 1L8 1Z" fill-rule="nonzero" transform="matrix(1 0 0 1 0 0)" fill="rgb(209, 213, 219)"/>
	<path d="M5 0C2.23858 0 0 2.23858 0 5L0 5.0075C0 7.76892 2.23108 10 4.9925 10L5 10C7.76142 10 10 7.76892 10 5.0075L10 5C10 2.23858 7.76892 0 5.0075 0L5 0Z" fill-rule="nonzero" transform="matrix(1 0 0 1 3.10156 3)" fill="rgb(0, 183, 146)"/>
</svg>
