<?xml version="1.0" encoding="utf-8" ?>
<svg xmlns="http://www.w3.org/2000/svg" xmlns:xlink="http://www.w3.org/1999/xlink" width="20" height="20" viewBox="0 0 20 20">
	<defs>
		<clipPath id="clipPath8426869683">
			<path d="M0 0L20 0L20 20L0 20L0 0Z" fill-rule="nonzero" transform="matrix(1 0 0 1 0 0)"/>
		</clipPath>
	</defs>
	<g clip-path="url(#clipPath8426869683)">
		<path d="M11.2863 0.625Q9.95895 0.625 8.88275 1.69352Q8.53367 2.04011 8.25479 2.45692Q8.11991 2.65853 8.05942 2.77951Q8.03189 2.83457 7.99415 2.8832Q7.9564 2.93183 7.9099 2.97216Q7.8634 3.01249 7.80992 3.04298Q7.75644 3.07346 7.69804 3.09293Q7.63964 3.11239 7.57857 3.12009Q7.5175 3.12779 7.45609 3.12343Q7.39469 3.11906 7.33532 3.10281Q7.27595 3.08655 7.22089 3.05902Q7.03455 2.96585 6.94138 2.77951Q6.88089 2.65853 6.74601 2.45692Q6.46713 2.04011 6.11805 1.69352Q5.04185 0.625 3.71446 0.625Q3.08791 0.625 2.51807 0.874196Q1.9681 1.1147 1.54089 1.55468Q1.11414 1.99418 0.876603 2.56346Q0.631909 3.14989 0.625367 3.78805Q0.598272 6.48097 2.63153 8.95972Q3.5172 10.0394 4.84022 11.1454Q5.94768 12.0712 7.49983 13.1247L7.5004 13.125L7.5004 13.125Q9.05297 12.0712 10.1603 11.1454Q11.4833 10.0394 12.369 8.95972Q14.4023 6.48092 14.3754 3.78787Q14.3689 3.14989 14.1242 2.56346Q13.8867 1.99417 13.4599 1.55467Q13.0327 1.1147 12.4827 0.874195Q11.9129 0.625 11.2863 0.625L11.2863 0.625ZM11.2863 -0.625Q12.1743 -0.625 12.9836 -0.271083Q13.7585 0.0677879 14.3567 0.683899Q14.9488 1.29372 15.2778 2.08211Q15.6163 2.89342 15.6254 3.77541Q15.6567 6.92257 13.3354 9.75248Q12.3752 10.9231 10.9621 12.1045Q9.80674 13.0703 8.20352 14.1585Q7.88529 14.375 7.5004 14.375Q7.1155 14.375 6.79785 14.1589Q5.19396 13.0703 4.03852 12.1045Q2.62529 10.9231 1.66507 9.75248Q-0.656234 6.92257 -0.624568 3.77523Q-0.615527 2.89342 -0.277 2.08211Q0.0519603 1.29372 0.64409 0.683899Q1.24232 0.0677882 2.01723 -0.271083Q2.82654 -0.625 3.71446 -0.625Q4.73232 -0.625 5.65298 -0.169582Q6.37583 0.187987 6.99876 0.806478Q7.43654 1.24114 7.78492 1.76183Q7.96366 2.02897 8.05942 2.22049L7.5004 2.5L6.94138 2.22049Q7.03714 2.02898 7.21588 1.76183Q7.56425 1.24113 8.00204 0.806479Q8.62497 0.187986 9.34782 -0.169582Q10.2685 -0.625 11.2863 -0.625L11.2863 -0.625Z" fill-rule="nonzero" transform="matrix(1 0 0 1 2.4996 3.125)" fill="rgb(156, 163, 175)"/>
		<path d="M8.5 14.4833L7.29167 13.3916C6 12.2166 4.9 11.2 4 10.3416C3.1 9.48333 2.35417 8.71663 1.7625 8.04163C1.17084 7.36663 0.72917 6.74166 0.4375 6.16666C0.14584 5.59166 0 4.98333 0 4.34166C0 3.1 0.40417 2.06666 1.2125 1.24166C2.02084 0.41666 3.04584 0 4.2875 0C4.97084 0 5.60834 0.15 6.2 0.45C6.79167 0.75 7.3 1.16666 7.725 1.7L8.5 2.65L9.27504 1.7C9.70004 1.16666 10.2083 0.75 10.8 0.45C11.3916 0.15 12.0291 0 12.7125 0C13.9541 0 14.9791 0.41666 15.7875 1.24166C16.5958 2.06666 17 3.1 17 4.34166C17 4.98333 16.8541 5.59166 16.5625 6.16666C16.2708 6.74166 15.8291 7.36663 15.2375 8.04163C14.6458 8.71663 13.9 9.48333 13 10.3416C12.1 11.2 11 12.2166 9.70834 13.3916L8.5 14.4833Z" fill-rule="nonzero" transform="matrix(1 0 0 1 1.5 3.01666)" fill="rgb(156, 163, 175)"/>
	</g>
</svg>
