<?xml version="1.0" encoding="utf-8" ?>
<svg xmlns="http://www.w3.org/2000/svg" xmlns:xlink="http://www.w3.org/1999/xlink" width="12.5" height="12.5" viewBox="0 0 12.5 12.5">
	<path d="M6.25 1C5.5378 1 4.85672 1.13747 4.20677 1.4124C3.57874 1.67807 3.02242 2.0532 2.53781 2.53781C2.0532 3.02242 1.67807 3.57874 1.4124 4.20677C1.13747 4.85672 1 5.5378 1 6.25C1 6.9622 1.13747 7.64328 1.4124 8.29323C1.67807 8.92126 2.0532 9.47758 2.53781 9.96219C3.02242 10.4468 3.57874 10.8219 4.20677 11.0876C4.85672 11.3625 5.5378 11.5 6.25 11.5C6.9622 11.5 7.64328 11.3625 8.29323 11.0876C8.92126 10.8219 9.47758 10.4468 9.96219 9.96219C10.4468 9.47758 10.8219 8.92126 11.0876 8.29323C11.3625 7.64328 11.5 6.9622 11.5 6.25C11.5 5.5378 11.3625 4.85672 11.0876 4.20677C10.8219 3.57874 10.4468 3.02242 9.96219 2.53781C9.47758 2.0532 8.92126 1.67807 8.29323 1.4124C7.64328 1.13747 6.9622 1 6.25 1ZM6.25 0C7.09741 0 7.90835 0.163805 8.68282 0.491414C9.43059 0.807733 10.0928 1.25416 10.6693 1.8307C11.2458 2.40725 11.6923 3.06941 12.0086 3.81718C12.3362 4.59165 12.5 5.40259 12.5 6.25C12.5 7.09741 12.3362 7.90835 12.0086 8.68282C11.6923 9.43059 11.2458 10.0928 10.6693 10.6693C10.0928 11.2458 9.43059 11.6923 8.68282 12.0086C7.90835 12.3362 7.09741 12.5 6.25 12.5C5.40259 12.5 4.59165 12.3362 3.81718 12.0086C3.06941 11.6923 2.40725 11.2458 1.8307 10.6693C1.25416 10.0928 0.807732 9.43059 0.491415 8.68282C0.163805 7.90835 0 7.09741 0 6.25C0 5.40259 0.163805 4.59165 0.491414 3.81718C0.807732 3.06941 1.25416 2.40725 1.8307 1.8307C2.40725 1.25416 3.06941 0.807732 3.81718 0.491415C4.59165 0.163805 5.40259 0 6.25 0Z" fill-rule="nonzero" transform="matrix(1 0 0 1 0 0)" fill="rgb(156, 163, 175)"/>
	<path d="M0 0.5C0 0.77614 0.22386 1 0.5 1L1 1L1 4.125C1 4.40114 1.22386 4.625 1.5 4.625C1.77614 4.625 2 4.40114 2 4.125L2 0.5C2 0.46717 1.9968 0.434654 1.99039 0.402455C1.98399 0.370255 1.97451 0.338989 1.96194 0.308658C1.94937 0.278327 1.93397 0.249512 1.91573 0.222215C1.8975 0.194918 1.87677 0.169662 1.85355 0.146447C1.83034 0.123232 1.80508 0.102505 1.77779 0.084265C1.75049 0.0660257 1.72167 0.050624 1.69134 0.03806C1.66101 0.0254967 1.62974 0.0160123 1.59755 0.00960699C1.56535 0.00320233 1.53283 0 1.5 0L0.5 0C0.22386 0 0 0.22386 0 0.5Z" fill-rule="evenodd" transform="matrix(1 0 0 1 4.875 4.875)" fill="rgb(156, 163, 175)"/>
	<path d="M0 0.5C0 0.77614 0.22386 1 0.5 1L3.25 1C3.52614 1 3.75 0.77614 3.75 0.5C3.75 0.22386 3.52614 0 3.25 0L0.5 0C0.22386 0 0 0.22386 0 0.5Z" fill-rule="evenodd" transform="matrix(1 0 0 1 4.5 8.625)" fill="rgb(156, 163, 175)"/>
	<path d="M0.8125 0C0.588134 0 0.396626 0.079325 0.237976 0.237975C0.0793252 0.396626 0 0.588134 0 0.8125C0 1.03687 0.079325 1.22837 0.237975 1.38702C0.396626 1.54567 0.588134 1.625 0.8125 1.625C1.03687 1.625 1.22837 1.54567 1.38702 1.38702C1.54567 1.22837 1.625 1.03687 1.625 0.8125C1.625 0.588134 1.54567 0.396626 1.38702 0.237975C1.22837 0.079325 1.03687 0 0.8125 0Z" fill-rule="nonzero" transform="matrix(1 0 0 1 5.4375 2.5625)" fill="rgb(156, 163, 175)"/>
</svg>
