<?xml version="1.0" encoding="utf-8" ?>
<svg xmlns="http://www.w3.org/2000/svg" xmlns:xlink="http://www.w3.org/1999/xlink" width="20" height="20" viewBox="0 0 20 20">
	<defs>
		<clipPath id="clipPath7691983807">
			<path d="M0 0L20 0L20 20L0 20L0 0Z" fill-rule="nonzero" transform="matrix(1 0 0 1 0 0)"/>
		</clipPath>
	</defs>
	<g clip-path="url(#clipPath7691983807)">
		<path d="M10.6904 4.85702Q11.6667 3.88071 11.6667 2.5Q11.6667 1.11929 10.6904 0.142977Q9.71404 -0.833333 8.33333 -0.833333Q6.95262 -0.833333 5.97631 0.142977Q5 1.11929 5 2.5Q5 3.88071 5.97631 4.85702Q6.95262 5.83333 8.33333 5.83333Q9.71404 5.83333 10.6904 4.85702ZM9.51184 1.32149Q10 1.80964 10 2.5Q10 3.19036 9.51184 3.67851Q9.02369 4.16667 8.33333 4.16667Q7.64298 4.16667 7.15482 3.67851Q6.66667 3.19036 6.66667 2.5Q6.66667 1.80964 7.15482 1.32149Q7.64298 0.833333 8.33333 0.833333Q9.02369 0.833333 9.51184 1.32149ZM5 5Q5 6.03553 4.26777 6.76777Q3.53553 7.5 2.5 7.5Q1.46447 7.5 0.732233 6.76777Q0 6.03553 0 5Q0 3.96447 0.732233 3.23223Q1.46447 2.5 2.5 2.5Q3.53553 2.5 4.26777 3.23223Q5 3.96446 5 5ZM16.6667 5Q16.6667 6.03553 15.9344 6.76777Q15.2022 7.5 14.1667 7.5Q13.1311 7.5 12.3989 6.76777Q11.6667 6.03553 11.6667 5Q11.6667 3.96447 12.3989 3.23223Q13.1311 2.5 14.1667 2.5Q15.2022 2.5 15.9344 3.23223Q16.6667 3.96446 16.6667 5ZM3.33333 5Q3.33333 4.65482 3.08926 4.41074Q2.84518 4.16667 2.5 4.16667Q2.15482 4.16667 1.91074 4.41074Q1.66667 4.65482 1.66667 5Q1.66667 5.34518 1.91074 5.58926Q2.15482 5.83333 2.5 5.83333Q2.84518 5.83333 3.08926 5.58926Q3.33333 5.34518 3.33333 5ZM15 5Q15 4.65482 14.7559 4.41074Q14.5118 4.16667 14.1667 4.16667Q13.8215 4.16667 13.5774 4.41074Q13.3333 4.65482 13.3333 5Q13.3333 5.34518 13.5774 5.58926Q13.8215 5.83333 14.1667 5.83333Q14.5118 5.83333 14.7559 5.58925Q15 5.34518 15 5ZM13.2303 8.46774Q12.8054 8.59211 12.4432 8.80931Q11.9248 8.05907 11.1371 7.52585Q9.86706 6.66608 8.33333 6.66608Q6.79961 6.66608 5.52952 7.52585Q4.74175 8.05912 4.22345 8.8093Q3.86126 8.5921 3.43638 8.46774Q2.41427 8.16857 1.40806 8.51744Q0.401837 8.86631 -0.215709 9.73397Q-0.833255 10.6016 -0.833333 11.6666L-0.833333 13.3333Q-0.833333 13.4154 -0.817321 13.4959Q-0.801309 13.5764 -0.769899 13.6522Q-0.73849 13.7281 -0.692891 13.7963Q-0.647292 13.8646 -0.589256 13.9226Q-0.531219 13.9806 -0.462975 14.0262Q-0.394731 14.0718 -0.318903 14.1032Q-0.243074 14.1346 -0.162575 14.1507Q-0.0820762 14.1667 0 14.1667L16.6667 14.1667Q16.7487 14.1667 16.8292 14.1507Q16.9097 14.1346 16.9856 14.1032Q17.0614 14.0718 17.1296 14.0262Q17.1979 13.9806 17.2559 13.9226Q17.314 13.8646 17.3596 13.7963Q17.4052 13.7281 17.4366 13.6522Q17.468 13.5764 17.484 13.4959Q17.5 13.4154 17.5 13.3333L17.5 11.6667Q17.4999 10.6016 16.8824 9.73397Q16.2648 8.86631 15.2586 8.51744Q14.2524 8.16857 13.2303 8.46774ZM11.6519 11.3469Q11.6076 10.8736 11.4296 10.4288Q11.0497 9.4793 10.2029 8.90602Q9.35599 8.33275 8.33333 8.33275Q7.31068 8.33275 6.46381 8.90602Q5.61695 9.4793 5.23688 10.4291Q5 11.0203 5 11.6667L5 12.5L11.6667 12.5L11.6667 11.6667Q11.6667 11.5051 11.6519 11.3469ZM13.6985 10.0673Q13.3952 10.1561 13.1558 10.3394Q13.2705 10.7554 13.3111 11.1876Q13.3333 11.4247 13.3333 11.6667L13.3333 12.5L15.8333 12.5L15.8333 11.6667Q15.8333 11.1342 15.5245 10.7004Q15.2157 10.2666 14.7126 10.0921Q14.6497 10.0703 14.5867 10.0536Q14.1456 9.93641 13.6985 10.0673ZM2.96819 10.0673Q2.45714 9.91771 1.95403 10.0921Q1.45092 10.2666 1.14215 10.7004Q0.833372 11.1342 0.833333 11.6667L0.833333 12.5L3.33333 12.5L3.33333 11.6667Q3.33333 10.9836 3.51089 10.3395Q3.49841 10.3299 3.48572 10.3206Q3.25565 10.1514 2.96819 10.0673Z" fill-rule="evenodd" transform="matrix(1 0 0 1 1.66667 3.33333)" fill="rgb(0, 189, 151)"/>
	</g>
</svg>
