<?xml version="1.0" encoding="utf-8" ?>
<svg xmlns="http://www.w3.org/2000/svg" xmlns:xlink="http://www.w3.org/1999/xlink" width="16" height="16" viewBox="0 0 16 16">
	<path d="M8 0C3.58172 0 0 3.58172 0 8L0 8.012C0 12.4303 3.56972 16 7.988 16L8 16C12.4183 16 16 12.4303 16 8.012L16 8C16 3.58172 12.4303 0 8.012 0L8 0Z" fill-rule="nonzero" transform="matrix(1 0 0 1 0 0)" fill="rgb(255, 255, 255)"/>
	<path d="M-0 8C0 3.58172 3.58172 -0 8 -0C12.4183 0 16 3.58172 16 8C16 12.4183 12.4183 16 8 16C3.58172 16 -0 12.4183 -0 8L0 8ZM8 1C4.13401 1 1 4.13401 1 8C1 11.866 4.13401 15 8 15C11.866 15 15 11.866 15 8C15 4.13401 11.866 1 8 1L8 1Z" fill-rule="nonzero" transform="matrix(1 0 0 1 0 0)" fill="rgb(209, 213, 219)"/>
</svg>
