<?xml version="1.0" encoding="utf-8" ?>
<svg xmlns="http://www.w3.org/2000/svg" xmlns:xlink="http://www.w3.org/1999/xlink" width="24" height="24" viewBox="0 0 24 24">
	<defs>
		<clipPath id="clipPath7994104198">
			<path d="M0 0L24 0L24 24L0 24L0 0Z" fill-rule="nonzero" transform="matrix(1 0 0 1 0 0)"/>
		</clipPath>
	</defs>
	<g clip-path="url(#clipPath7994104198)">
		<defs>
			<mask id="mask4003760451" style="mask-type:alpha">
				<path d="M0 0L24 0L24 24L0 24L0 0Z" fill-rule="nonzero" transform="matrix(1 0 0 1 0 0)" fill="rgb(0, 0, 0)"/>
			</mask>
		</defs>
		<g mask="url(#mask4003760451)">
			<rect width="19.5" height="15" rx="2.625" ry="2.625" stroke-width="1.5" stroke-linejoin="round" transform="matrix(1 0 0 1 2.25 4.5)" stroke="rgb(255, 255, 255)" fill="transparent"/>
			<path d="M19.5 0L0 0L0 2.8125L19.5 2.8125L19.5 0ZM2.34375 6.46875L2.34375 7.40625C2.34375 7.45231 2.34601 7.49826 2.35052 7.54409C2.35503 7.58992 2.36178 7.63543 2.37077 7.6806C2.37976 7.72577 2.39093 7.77039 2.4043 7.81446C2.41767 7.85853 2.43317 7.90185 2.45079 7.9444C2.46842 7.98695 2.48809 8.02853 2.5098 8.06915C2.53151 8.10977 2.55516 8.14923 2.58075 8.18752C2.60634 8.22581 2.63374 8.26276 2.66295 8.29837C2.69217 8.33397 2.72306 8.36805 2.75563 8.40062C2.7882 8.43319 2.82228 8.46408 2.85788 8.4933C2.89349 8.52251 2.93044 8.54991 2.96873 8.5755C3.00702 8.60109 3.04648 8.62474 3.0871 8.64645C3.12772 8.66816 3.1693 8.68783 3.21185 8.70545C3.2544 8.72308 3.29772 8.73858 3.34179 8.75195C3.38586 8.76532 3.43048 8.77649 3.47565 8.78548C3.52082 8.79447 3.56633 8.80122 3.61216 8.80573C3.658 8.81024 3.70395 8.8125 3.75 8.8125L6 8.8125C6.04606 8.8125 6.09201 8.81024 6.13784 8.80573C6.18367 8.80122 6.22918 8.79447 6.27435 8.78548C6.31952 8.77649 6.36414 8.76532 6.40821 8.75195C6.45228 8.73858 6.4956 8.72308 6.53815 8.70545C6.5807 8.68783 6.62228 8.66816 6.6629 8.64645C6.70352 8.62474 6.74298 8.60109 6.78127 8.5755C6.81956 8.54991 6.85651 8.52251 6.89212 8.4933C6.92772 8.46408 6.9618 8.43319 6.99437 8.40062C7.02694 8.36805 7.05783 8.33397 7.08705 8.29837C7.11626 8.26276 7.14366 8.22581 7.16925 8.18752C7.19484 8.14923 7.21849 8.10977 7.2402 8.06915C7.26191 8.02853 7.28158 7.98695 7.2992 7.9444C7.31683 7.90185 7.33233 7.85853 7.3457 7.81446C7.35907 7.77039 7.37024 7.72577 7.37923 7.6806C7.38822 7.63543 7.39497 7.58992 7.39948 7.54409C7.40399 7.49826 7.40625 7.45231 7.40625 7.40625L7.40625 6.46875C7.40625 6.4227 7.40399 6.37675 7.39948 6.33091C7.39497 6.28508 7.38822 6.23957 7.37923 6.1944C7.37024 6.14923 7.35907 6.10461 7.3457 6.06054C7.33233 6.01647 7.31683 5.97315 7.2992 5.9306C7.28158 5.88805 7.26191 5.84647 7.2402 5.80585C7.21849 5.76523 7.19484 5.72577 7.16925 5.68748C7.14366 5.64919 7.11626 5.61224 7.08705 5.57663C7.05783 5.54103 7.02694 5.50695 6.99437 5.47438C6.9618 5.44181 6.92772 5.41092 6.89212 5.3817C6.85651 5.35249 6.81956 5.32509 6.78127 5.2995C6.74298 5.27391 6.70352 5.25026 6.6629 5.22855C6.62228 5.20684 6.5807 5.18717 6.53815 5.16954C6.4956 5.15192 6.45228 5.13642 6.40821 5.12305C6.36414 5.10968 6.31952 5.09851 6.27435 5.08952C6.22918 5.08053 6.18367 5.07378 6.13784 5.06927C6.09201 5.06476 6.04606 5.0625 6 5.0625L3.75 5.0625C3.70395 5.0625 3.658 5.06476 3.61216 5.06927C3.56633 5.07378 3.52082 5.08053 3.47565 5.08952C3.43048 5.09851 3.38586 5.10968 3.34179 5.12305C3.29772 5.13642 3.2544 5.15192 3.21185 5.16954C3.1693 5.18717 3.12772 5.20684 3.0871 5.22855C3.04648 5.25026 3.00702 5.27391 2.96873 5.2995C2.93044 5.32509 2.89349 5.35249 2.85788 5.3817C2.82228 5.41092 2.7882 5.44181 2.75563 5.47438C2.72306 5.50695 2.69217 5.54103 2.66295 5.57663C2.63374 5.61224 2.60634 5.64919 2.58075 5.68748C2.55516 5.72577 2.53151 5.76523 2.5098 5.80585C2.48809 5.84647 2.46842 5.88805 2.45079 5.9306C2.43317 5.97315 2.41767 6.01647 2.4043 6.06054C2.39093 6.10461 2.37976 6.14923 2.37077 6.1944C2.36178 6.23957 2.35503 6.28508 2.35052 6.33091C2.34601 6.37675 2.34375 6.4227 2.34375 6.46875Z" fill-rule="evenodd" transform="matrix(1 0 0 1 2.25 7.59375)" fill="rgb(255, 255, 255)"/>
		</g>
	</g>
</svg>
